# xmcd CD database file
#
# Track frame offsets:
#	150
#	13650
#	26525
#	40498
#	54148
#	68023
#	80276
#	96454
#	109306
#	120143
#	132053
#	145323
#	155685
#	170185
#	184736
#	197742
#	211530
#	253175
#	267375
#
# Disc length: 3768 seconds
#
# Revision: 0
# Processed by: cddbd v1.5.2PL0 Copyright (c) Steve Scherf et al.
# Submitted via: CDex 1.70beta2
#
DISCID=090eb613
DTITLE=Various Artist - 101 Jazz Diamonds CD4
DYEAR=2009
DGENRE=Jazz
TTITLE0=Duke Ellington - Take The "A" Train
TTITLE1=Billie Holliday and Her Orchestra - A Fine Romance
TTITLE2=Dizzy Gillespie and His Orchestra - Night In Tunisia
TTITLE3=Bessie Smith - Downhearted Blues
TTITLE4=Artie Shaw and His Orchestra - Little Jazz
TTITLE5=Lena Horne - What Is This Thing Called Love?
TTITLE6=Cab Calloway - Minnie The Moocher's Wedding Day
TTITLE7=Benny Goodman Quartet - Stompin' At The Savoy
TTITLE8=Fats Waller and His Rhythm - I'm Crazy About My Baby (And My Baby's Crazy 'bout Me)
TTITLE9=Count Basie - Seventh Avenue Express
TTITLE10=Louis Armstrong - Cornet Chop Suey
TTITLE11=Mahalia Jackson - Down By The Riverside
TTITLE12=Mango Santamaria - Watermelon Man
TTITLE13=Les Brown - Just A Gigolo
TTITLE14=Lionel Hampton and His Orchestra - I've Found A New Baby
TTITLE15=Dave Brubeck - Trolley Song
TTITLE16=George Benson - So What?
TTITLE17=Hubert Laws - I've Got To Get A Message To You
TTITLE18=Dexter Gordon - Isn't She Lovely
EXTD=YEAR: 2009
EXTT0=
EXTT1=
EXTT2=
EXTT3=
EXTT4=
EXTT5=
EXTT6=
EXTT7=
EXTT8=
EXTT9=
EXTT10=
EXTT11=
EXTT12=
EXTT13=
EXTT14=
EXTT15=
EXTT16=
EXTT17=
EXTT18=
PLAYORDER=
